<svg width="722" height="457" viewBox="0 0 722 457" fill="none" xmlns="http://www.w3.org/2000/svg">
<g clip-path="url(#clip0_46_985)">
<path d="M638.26 301.851C634.763 331.813 627.496 355.869 617.522 375.053C604.25 400.615 581.548 410.915 561.269 421.691C555.409 424.8 549.316 427.449 543.046 429.615C506.143 442.422 464.841 439.025 432.397 432.263C409.642 427.516 386.543 424.595 363.323 423.53C356.7 423.231 350.07 423.083 343.434 423.085C333.202 423.098 148.952 426.595 104.093 335.775C93.0172 313.372 85.4256 286.005 82.6982 252.645C74.9805 158.334 117.398 96.3933 172.112 55.9069C275.614 -20.6796 417.486 -17.4677 519.462 61.1361C587.388 113.494 650.988 192.735 638.26 301.851Z" fill="#3F3D56"/>
<path d="M617.522 375.053C604.25 400.615 586.194 417.551 565.914 428.327C560.054 431.436 553.961 434.085 547.691 436.251C510.788 449.058 469.486 445.661 437.042 438.899C414.287 434.152 391.189 431.231 367.968 430.166C361.345 429.867 354.716 429.719 348.08 429.721C337.847 429.734 327.616 430.115 317.388 430.862C250.915 435.747 148.952 426.595 104.093 335.775L216.335 118.378L258.108 225.63L271.44 259.865L308.184 209.445L327.156 183.412L413.557 282.468L437.978 228.537L607.051 366.513L616.48 374.204L617.522 375.053Z" fill="#F2F2F2"/>
<path opacity="0.1" d="M200.408 188.057L217.662 150.231L241.551 205.31L220.98 165.494L200.408 188.057Z" fill="black"/>
<path opacity="0.1" d="M367.968 430.166C361.345 429.867 354.716 429.719 348.08 429.721L271.44 259.865L367.968 430.166Z" fill="black"/>
<path opacity="0.1" d="M308.185 209.444L327.156 194.693L413.425 294.233L325.829 209.292L308.185 209.444Z" fill="black"/>
<path opacity="0.1" d="M565.914 428.327C560.054 431.436 553.961 434.085 547.691 436.251L413.557 282.468L565.914 428.327Z" fill="black"/>
<path d="M319.857 69.9355C320.956 69.9355 321.847 69.0442 321.847 67.9447C321.847 66.8452 320.956 65.9539 319.857 65.9539C318.757 65.9539 317.866 66.8452 317.866 67.9447C317.866 69.0442 318.757 69.9355 319.857 69.9355Z" fill="#F2F2F2"/>
<path d="M264.778 138.287C265.877 138.287 266.768 137.395 266.768 136.296C266.768 135.196 265.877 134.305 264.778 134.305C263.678 134.305 262.787 135.196 262.787 136.296C262.787 137.395 263.678 138.287 264.778 138.287Z" fill="#F2F2F2"/>
<path d="M399.489 149.568C400.222 149.568 400.816 148.974 400.816 148.241C400.816 147.508 400.222 146.913 399.489 146.913C398.756 146.913 398.162 147.508 398.162 148.241C398.162 148.974 398.756 149.568 399.489 149.568Z" fill="#F2F2F2"/>
<path d="M120.776 179.43C121.509 179.43 122.103 178.836 122.103 178.103C122.103 177.37 121.509 176.776 120.776 176.776C120.043 176.776 119.449 177.37 119.449 178.103C119.449 178.836 120.043 179.43 120.776 179.43Z" fill="#F2F2F2"/>
<path d="M407.452 67.281C408.185 67.281 408.779 66.6868 408.779 65.9538C408.779 65.2208 408.185 64.6266 407.452 64.6266C406.719 64.6266 406.125 65.2208 406.125 65.9538C406.125 66.6868 406.719 67.281 407.452 67.281Z" fill="#F2F2F2"/>
<path d="M489.739 130.987C490.472 130.987 491.066 130.393 491.066 129.66C491.066 128.927 490.472 128.333 489.739 128.333C489.006 128.333 488.412 128.927 488.412 129.66C488.412 130.393 489.006 130.987 489.739 130.987Z" fill="#F2F2F2"/>
<path d="M570.699 231.855C571.432 231.855 572.026 231.26 572.026 230.527C572.026 229.794 571.432 229.2 570.699 229.2C569.966 229.2 569.371 229.794 569.371 230.527C569.371 231.26 569.966 231.855 570.699 231.855Z" fill="#F2F2F2"/>
<path d="M203.063 80.7253H201.231V78.8938H200.249V80.7253H198.417V81.7081H200.249V83.539H201.231V81.7081H203.063V80.7253Z" fill="#F2F2F2"/>
<path d="M562.735 281.797H560.904V279.966H559.922V281.797H558.09V282.78H559.922V284.611H560.904V282.78H562.735V281.797Z" fill="#F2F2F2"/>
<path d="M722 407.709C722 418.704 560.375 456.816 361 456.816C161.625 456.816 0 418.704 0 407.709C0 396.714 161.625 417 361 417C560.375 417 722 396.714 722 407.709Z" fill="#3F3D56"/>
<path opacity="0.1" d="M722 407.709C722 418.704 560.375 456.816 361 456.816C161.625 456.816 0 418.704 0 407.709C0 396.714 161.625 417 361 417C560.375 417 722 396.714 722 407.709Z" fill="black"/>
<path d="M361 427.617C560.375 427.617 722 418.704 722 407.709C722 396.714 560.375 387.801 361 387.801C161.625 387.801 0 396.714 0 407.709C0 418.704 161.625 427.617 361 427.617Z" fill="#3F3D56"/>
<path d="M376.926 379.838C376.926 401.828 367.122 395.764 355.028 395.764C342.933 395.764 333.129 401.828 333.129 379.838C333.129 357.848 355.028 316.132 355.028 316.132C355.028 316.132 376.926 357.848 376.926 379.838Z" fill="#FF6584"/>
<path opacity="0.1" d="M364.982 388.252C364.982 398.247 360.525 395.491 355.028 395.491C349.53 395.491 345.073 398.247 345.073 388.252C345.073 378.256 355.028 359.294 355.028 359.294C355.028 359.294 364.982 378.256 364.982 388.252Z" fill="black"/>
<path d="M379.581 401.737H330.474C327.176 401.737 324.502 404.411 324.502 407.709C324.502 411.008 327.176 413.682 330.474 413.682H379.581C382.879 413.682 385.553 411.008 385.553 407.709C385.553 404.411 382.879 401.737 379.581 401.737Z" fill="#2F2E41"/>
<path d="M379.581 389.792H330.474C327.176 389.792 324.502 392.466 324.502 395.764C324.502 399.063 327.176 401.737 330.474 401.737H379.581C382.879 401.737 385.553 399.063 385.553 395.764C385.553 392.466 382.879 389.792 379.581 389.792Z" fill="#2F2E41"/>
<path d="M90.9136 325.798C90.9136 362.524 113.954 392.242 142.426 392.242L90.9136 325.798Z" fill="#3F3D56"/>
<path d="M142.426 392.242C142.426 355.103 168.138 325.051 199.912 325.051L142.426 392.242Z" fill="#525A92"/>
<path d="M109.578 329.127C109.578 364.013 124.27 392.242 142.426 392.242L109.578 329.127Z" fill="#525A92"/>
<path d="M142.426 392.242C142.426 344.787 172.145 306.387 208.871 306.387L142.426 392.242Z" fill="#3F3D56"/>
<path d="M131.589 392.71C131.589 392.71 138.895 392.485 141.096 390.918C143.298 389.35 152.334 387.478 152.88 389.992C153.426 392.507 163.859 402.498 155.611 402.564C147.363 402.631 136.447 401.279 134.25 399.941C132.052 398.602 131.589 392.71 131.589 392.71Z" fill="#A8A8A8"/>
<path opacity="0.2" d="M155.758 401.689C147.511 401.755 136.594 400.404 134.397 399.066C132.723 398.046 132.056 394.389 131.833 392.701C131.679 392.708 131.589 392.711 131.589 392.711C131.589 392.711 132.052 398.602 134.25 399.941C136.447 401.279 147.363 402.631 155.611 402.564C157.992 402.545 158.814 401.698 158.769 400.443C158.438 401.201 157.53 401.675 155.758 401.689Z" fill="black"/>
<path d="M478.742 350.042C478.742 375.278 494.574 395.699 514.139 395.699L478.742 350.042Z" fill="#3F3D56"/>
<path d="M514.139 395.699C514.139 370.179 531.807 349.529 553.64 349.529L514.139 395.699Z" fill="#525A92"/>
<path d="M491.567 352.33C491.567 376.301 501.663 395.699 514.139 395.699L491.567 352.33Z" fill="#525A92"/>
<path d="M514.139 395.699C514.139 363.09 534.56 336.704 559.796 336.704L514.139 395.699Z" fill="#3F3D56"/>
<path d="M506.693 396.021C506.693 396.021 511.713 395.866 513.225 394.789C514.738 393.712 520.947 392.425 521.323 394.153C521.698 395.881 528.867 402.746 523.199 402.792C517.532 402.837 510.031 401.909 508.521 400.989C507.011 400.069 506.693 396.021 506.693 396.021Z" fill="#A8A8A8"/>
<path opacity="0.2" d="M523.3 402.19C517.633 402.236 510.132 401.307 508.622 400.388C507.472 399.687 507.014 397.174 506.86 396.014C506.754 396.019 506.693 396.021 506.693 396.021C506.693 396.021 507.011 400.069 508.521 400.989C510.031 401.909 517.532 402.837 523.199 402.792C524.835 402.778 525.4 402.196 525.369 401.334C525.142 401.855 524.518 402.18 523.3 402.19Z" fill="black"/>
<path d="M593.137 410.853C593.137 410.853 600.675 409.705 602.759 407.806C604.843 405.907 613.968 402.837 614.848 405.373C615.729 407.909 627.784 416.951 619.25 418.052C610.716 419.153 599.241 419.12 596.797 418.009C594.354 416.897 593.137 410.853 593.137 410.853Z" fill="#A8A8A8"/>
<path opacity="0.2" d="M619.293 417.127C610.759 418.228 599.283 418.195 596.84 417.084C594.979 416.237 593.831 412.532 593.388 410.812C593.229 410.839 593.137 410.853 593.137 410.853C593.137 410.853 594.354 416.897 596.797 418.009C599.241 419.12 610.716 419.153 619.25 418.052C621.714 417.734 622.459 416.754 622.255 415.46C622.008 416.287 621.127 416.891 619.293 417.127Z" fill="black"/>
<path d="M407.625 410.307C407.625 410.307 413.987 409.339 415.745 407.736C417.504 406.133 425.205 403.542 425.948 405.682C426.691 407.823 436.865 415.454 429.663 416.383C422.46 417.312 412.776 417.284 410.714 416.346C408.651 415.409 407.625 410.307 407.625 410.307Z" fill="#A8A8A8"/>
<path opacity="0.2" d="M429.699 415.602C422.497 416.532 412.812 416.504 410.75 415.566C409.179 414.852 408.21 411.725 407.837 410.273C407.702 410.295 407.625 410.307 407.625 410.307C407.625 410.307 408.651 415.409 410.714 416.346C412.776 417.284 422.46 417.312 429.663 416.383C431.742 416.115 432.371 415.288 432.199 414.196C431.99 414.893 431.247 415.403 429.699 415.602Z" fill="black"/>
<path d="M81.2177 407.131C81.2177 407.131 86.1704 406.377 87.5397 405.129C88.909 403.881 94.9039 401.864 95.4823 403.53C96.0608 405.196 103.982 411.137 98.3745 411.861C92.7674 412.584 85.2278 412.562 83.6225 411.832C82.0171 411.102 81.2177 407.131 81.2177 407.131Z" fill="#A8A8A8"/>
<path opacity="0.2" d="M98.4027 411.253C92.7956 411.976 85.256 411.955 83.6507 411.224C82.4281 410.668 81.6735 408.234 81.3829 407.104C81.2783 407.121 81.2177 407.131 81.2177 407.131C81.2177 407.131 82.0171 411.102 83.6225 411.832C85.2279 412.562 92.7674 412.584 98.3745 411.861C99.993 411.652 100.483 411.008 100.349 410.158C100.186 410.701 99.6074 411.097 98.4027 411.253Z" fill="black"/>
<path opacity="0.1" d="M254.622 399.319C254.622 419.373 226.669 413.17 192.442 413.17C158.216 413.17 130.678 419.373 130.678 399.319C130.678 379.265 158.628 374.903 192.854 374.903C227.08 374.903 254.622 379.265 254.622 399.319Z" fill="black"/>
<path d="M254.622 394.381C254.622 414.435 226.669 408.233 192.442 408.233C158.216 408.233 130.678 414.435 130.678 394.381C130.678 374.327 158.628 369.965 192.854 369.965C227.08 369.965 254.622 374.327 254.622 394.381Z" fill="#3F3D56"/>
<path d="M259.951 302.501C258.302 303.344 256.734 304.337 255.268 305.468C253.796 306.609 252.669 308.135 252.012 309.877C251.187 307.946 250.513 305.953 249.996 303.918C248.833 300.265 247.458 296.683 245.876 293.19C248.472 292.202 250.723 290.476 252.351 288.225C255.536 291.396 258.811 294.703 260.395 298.909C260.668 299.633 261.462 300.406 261.647 301.054C261.908 301.972 260.647 302.118 259.951 302.501Z" fill="#FFBFC5"/>
<path d="M289.923 379.802C293.402 380.901 296.646 382.636 299.49 384.921C299.705 385.055 299.86 385.266 299.925 385.51C299.997 386.061 299.262 386.286 298.728 386.44C297.157 386.892 296.154 388.367 294.997 389.522C293.84 390.677 291.982 391.583 290.633 390.66C290.278 390.389 289.969 390.063 289.716 389.695L284.016 382.255C285.949 381.175 287.981 380.282 290.084 379.591" fill="#F1F1F1"/>
<path d="M300.169 381.349C300.924 382.12 301.252 383.227 301.992 384.011C302.491 384.486 303.059 384.881 303.679 385.181L308.04 387.581C308.71 387.978 309.416 388.311 310.147 388.577C310.969 388.806 311.805 388.981 312.65 389.1C313.859 389.326 315.041 389.675 316.179 390.141C317.035 390.491 317.988 391.095 317.984 392.019C317.949 392.471 317.765 392.898 317.461 393.233C315.741 395.399 312.698 395.879 309.947 396.17C303.994 396.799 297.901 397.271 292.081 395.868C290.945 395.659 289.871 395.194 288.941 394.509C287.185 393.054 286.836 390.403 287.491 388.218C287.677 387.381 288.172 386.644 288.878 386.156C289.8 385.628 290.949 385.873 292.008 385.791C293.135 385.638 294.226 385.29 295.235 384.764C295.9 384.464 296.666 384.077 296.809 383.285C296.941 382.551 296.078 381.815 296.26 381.16C296.662 379.706 299.474 380.64 300.169 381.349Z" fill="#575A89"/>
<path opacity="0.1" d="M300.169 381.349C300.924 382.12 301.252 383.227 301.992 384.011C302.491 384.486 303.059 384.881 303.679 385.181L308.04 387.581C308.71 387.978 309.416 388.311 310.147 388.577C310.969 388.806 311.805 388.981 312.65 389.1C313.859 389.326 315.041 389.675 316.179 390.141C317.035 390.491 317.988 391.095 317.984 392.019C317.949 392.471 317.765 392.898 317.461 393.233C315.741 395.399 312.698 395.879 309.947 396.17C303.994 396.799 297.901 397.271 292.081 395.868C290.945 395.659 289.871 395.194 288.941 394.509C287.185 393.054 286.836 390.403 287.491 388.218C287.677 387.381 288.172 386.644 288.878 386.156C289.8 385.628 290.949 385.873 292.008 385.791C293.135 385.638 294.226 385.29 295.235 384.764C295.9 384.464 296.666 384.077 296.809 383.285C296.941 382.551 296.078 381.815 296.26 381.16C296.662 379.706 299.474 380.64 300.169 381.349Z" fill="black"/>
<path d="M310.288 405.171C310.899 405.574 311.51 405.977 312.12 406.381C312.682 406.68 313.144 407.136 313.451 407.694C313.848 408.627 313.311 409.684 312.714 410.504C310.921 412.955 308.474 414.851 305.653 415.976C304.674 416.383 303.641 416.641 302.586 416.741C302.345 416.778 302.098 416.747 301.873 416.651C301.315 416.356 301.395 415.557 301.388 414.926C301.369 413.093 299.985 411.605 298.741 410.259C297.497 408.914 296.229 407.256 296.514 405.446C296.772 404.38 297.318 403.406 298.093 402.629C298.782 401.765 299.59 401.002 300.493 400.365C301.787 399.518 302.244 399.974 303.461 400.75C305.748 402.207 308.023 403.681 310.288 405.171Z" fill="#F1F1F1"/>
<path d="M304.334 414.099C304.833 414.224 305.354 414.231 305.855 414.118C306.356 414.005 306.824 413.775 307.22 413.448C308.007 412.785 308.645 411.964 309.094 411.039C309.539 410.215 309.927 409.362 310.254 408.484C310.637 407.457 310.992 406.321 311.895 405.698C312.989 404.942 314.53 405.238 315.642 405.967C316.69 406.785 317.653 407.707 318.515 408.719C320.825 410.874 323.626 412.432 326.675 413.259C329.71 414.079 332.787 414.737 335.892 415.23C336.513 415.313 337.114 415.506 337.666 415.801C338.914 416.562 339.331 418.262 338.983 419.682C338.543 421.084 337.752 422.35 336.687 423.361C335.848 424.356 334.807 425.161 333.634 425.724C332.642 426.087 331.597 426.285 330.541 426.31C325.427 426.658 320.289 426.255 315.291 425.116C313.456 424.617 311.588 424.244 309.701 424C308.551 423.899 307.393 423.931 306.241 423.852C303.951 423.695 301.711 423.105 299.642 422.112C299.138 421.927 298.713 421.574 298.439 421.113C298.29 420.689 298.259 420.232 298.349 419.791L299.113 413.102C299.18 412.519 299.374 411.796 299.953 411.705C300.504 411.618 300.904 412.183 301.251 412.62C301.923 413.425 302.844 413.984 303.869 414.208C304.894 414.432 305.964 414.309 306.911 413.857" fill="#575A89"/>
<path d="M260.044 329.751C263.4 329.373 267.293 329.31 269.562 331.811C270.954 333.345 271.377 335.494 271.858 337.509C272.611 340.892 273.835 344.152 275.495 347.195C276.562 349.08 277.856 350.849 278.675 352.854C279.515 354.909 279.824 357.134 280.315 359.299C282.282 367.855 287.085 375.494 293.943 380.975C292.732 384.269 289.23 386.15 285.824 386.991C285.102 387.297 284.297 387.352 283.541 387.146C282.784 386.939 282.119 386.485 281.652 385.854C280.058 384.134 278.574 382.316 277.207 380.41C272.297 373.853 267.312 367.158 264.638 359.416C263.699 356.699 262.761 353.527 260.12 352.392C258.614 351.744 256.892 351.946 255.276 352.22C251.664 352.833 248.11 353.746 244.65 354.949C240.96 356.232 236.737 357.811 233.36 355.848C231.34 354.673 230.137 352.416 229.693 350.122C229.36 347.805 229.356 345.453 229.684 343.135C229.707 342.086 229.958 341.055 230.421 340.114C230.889 339.411 231.488 338.804 232.186 338.328C235.201 336.038 238.555 334.231 242.126 332.973C245.538 331.771 249.204 331.363 252.763 330.769C255.181 330.365 257.607 330.026 260.044 329.751Z" fill="#575A89"/>
<path opacity="0.1" d="M260.044 329.751C263.4 329.373 267.293 329.31 269.562 331.811C270.954 333.345 271.377 335.494 271.858 337.509C272.611 340.892 273.835 344.152 275.495 347.195C276.562 349.08 277.856 350.849 278.675 352.854C279.515 354.909 279.824 357.134 280.315 359.299C282.282 367.855 287.085 375.494 293.943 380.975C292.732 384.269 289.23 386.15 285.824 386.991C285.102 387.297 284.297 387.352 283.541 387.146C282.784 386.939 282.119 386.485 281.652 385.854C280.058 384.134 278.574 382.316 277.207 380.41C272.297 373.853 267.312 367.158 264.638 359.416C263.699 356.699 262.761 353.527 260.12 352.392C258.614 351.744 256.892 351.946 255.276 352.22C251.664 352.833 248.11 353.746 244.65 354.949C240.96 356.232 236.737 357.811 233.36 355.848C231.34 354.673 230.137 352.416 229.693 350.122C229.36 347.805 229.356 345.453 229.684 343.135C229.707 342.086 229.958 341.055 230.421 340.114C230.889 339.411 231.488 338.804 232.186 338.328C235.201 336.038 238.555 334.231 242.126 332.973C245.538 331.771 249.204 331.363 252.763 330.769C255.181 330.365 257.607 330.026 260.044 329.751Z" fill="black"/>
<path d="M279.258 353.955C280.814 354.74 282.244 355.756 283.499 356.967C284.794 358.493 285.777 360.258 286.394 362.161C286.67 362.796 286.839 363.473 286.895 364.163C286.92 364.509 286.866 364.856 286.738 365.178C286.609 365.499 286.409 365.788 286.152 366.021C285.531 366.42 284.794 366.6 284.058 366.533C283.085 366.541 282.112 366.515 281.14 366.457C280.549 366.452 279.963 366.341 279.411 366.129C278.906 365.871 278.45 365.526 278.065 365.11C276.354 363.521 274.953 361.629 273.932 359.53C273.228 357.976 272.068 354.395 273.177 352.778C274.32 351.113 278.05 353.269 279.258 353.955Z" fill="#FFBFC5"/>
<path d="M232.2 353.4C237.163 354.99 242.447 355.172 247.637 355.657C256.367 356.473 264.99 358.178 273.373 360.744C275.124 361.171 276.773 361.939 278.226 363.004C279.347 364.041 280.298 365.249 281.04 366.584C282.404 368.662 283.639 370.822 284.739 373.051C285.681 375.066 286.4 377.177 287.277 379.221C290.224 386.065 294.884 392.033 300.808 396.553C301.891 397.376 303.096 398.272 303.374 399.603C303.499 400.46 303.359 401.335 302.974 402.11C301.694 405.091 299.037 407.259 296.25 408.918C295.052 409.632 293.733 410.356 293.144 411.62C288.907 409.871 285.758 406.143 283.137 402.383C280.515 398.623 278.19 394.583 274.83 391.465C273.35 390.092 271.669 388.896 270.505 387.246C268.728 384.728 268.248 381.283 265.856 379.339C263.447 377.382 259.992 377.648 256.903 377.951C241.081 379.5 225.138 379.328 209.353 377.437C206.072 377.043 202.7 376.542 199.858 374.856C197.015 373.17 194.802 370.006 195.205 366.726C195.582 363.655 198.139 361.221 200.99 360.019C203.841 358.817 206.992 358.601 210.066 358.255C217.61 357.519 225.04 355.889 232.2 353.4Z" fill="#575A89"/>
<path d="M186.812 359.776C187.201 357.173 188.212 354.707 188.847 352.152C189.165 350.544 189.568 348.954 190.053 347.389C190.069 347.345 190.087 347.302 190.104 347.258C190.265 347.245 190.421 347.196 190.562 347.116C190.702 347.035 190.824 346.925 190.917 346.793C191.003 346.565 191.027 346.318 190.986 346.077C190.973 345.822 190.98 345.567 191.008 345.313C192.046 343.572 193.181 341.891 194.406 340.276C196.556 337.231 198.418 333.994 200.276 330.763C201.799 328.114 203.326 325.46 204.587 322.677C205.533 320.59 206.328 318.433 207.373 316.394C211.095 309.136 217.784 303.791 224.979 299.949C231.88 296.264 239.342 293.78 246.598 290.85C246.785 291.034 246.954 291.233 247.104 291.447C251.025 296.806 251.448 303.849 253.061 310.29C253.713 312.891 254.583 315.482 254.582 318.163C254.579 322.12 252.688 325.802 250.808 329.284C249.128 332.612 247.145 335.778 244.883 338.742C243.772 340.116 242.549 341.396 241.433 342.765C236.859 348.374 234.218 355.27 231.65 362.037C230.163 365.955 227.734 369.43 226.099 373.288C225.471 374.771 225.109 376.37 224.32 377.774C223.531 379.178 222.159 380.413 220.548 380.42C220.077 380.407 219.609 380.334 219.157 380.202C213.328 378.702 208.446 374.845 203.601 371.273C202.737 370.636 201.867 370.004 200.96 369.429C200.044 368.848 199.092 368.326 198.141 367.805C197.42 367.41 196.7 367.015 195.979 366.62C193.617 365.326 191.252 364.03 188.791 362.936C188.051 362.638 187.34 362.273 186.668 361.845C186.66 361.153 186.708 360.461 186.812 359.776Z" fill="#525A92"/>
<path d="M263.025 302.056C270.443 302.056 276.456 296.043 276.456 288.625C276.456 281.207 270.443 275.194 263.025 275.194C255.607 275.194 249.594 281.207 249.594 288.625C249.594 296.043 255.607 302.056 263.025 302.056Z" fill="#FFBFC5"/>
<path d="M272.06 282.341C272.385 282.908 272.876 283.362 273.468 283.64C274.06 283.919 274.723 284.008 275.367 283.896C276.008 283.767 276.614 283.504 277.146 283.125C277.678 282.745 278.124 282.258 278.454 281.694C279.107 280.56 279.498 279.294 279.598 277.989C279.702 277.488 279.707 276.972 279.611 276.469C279.515 275.966 279.32 275.488 279.038 275.061C278.538 274.575 277.963 274.173 277.335 273.869C276.47 273.329 275.743 272.593 275.213 271.721C274.837 271.1 274.568 270.422 274.23 269.779C273.008 267.459 270.631 265.572 268.01 265.658C266.751 265.699 265.551 266.177 264.311 266.395C260.147 267.125 255.621 264.922 251.758 266.64C250.807 267.103 249.924 267.692 249.131 268.392C248.044 269.289 246.999 270.233 245.996 271.226C245.124 271.969 244.465 272.928 244.084 274.008C243.56 275.978 244.807 278.18 244.014 280.059C243.742 280.596 243.417 281.106 243.045 281.579C242.169 282.865 243.121 287.882 243.024 289.435C242.912 290.195 243.106 290.968 243.562 291.587C244.195 292.293 245.261 292.355 246.209 292.366L247.953 292.387C248.214 292.405 248.475 292.378 248.727 292.307C249.069 292.155 249.37 291.923 249.604 291.631C251.054 290.103 251.369 285.106 253.475 285.124C253.795 285.106 254.113 285.188 254.384 285.359C254.766 285.639 254.878 286.153 255.148 286.542C255.458 286.907 255.876 287.163 256.342 287.271C256.808 287.38 257.297 287.336 257.736 287.146C258.606 286.744 259.363 286.132 259.939 285.366C260.512 284.601 261.208 283.936 261.998 283.398C263.121 282.743 264.39 282.458 265.482 281.718C266.395 281.1 266.915 280.203 267.734 279.52C268.061 279.237 268.473 279.071 268.905 279.047C269.337 279.023 269.765 279.142 270.122 279.386C271.414 280.061 271.471 281.166 272.06 282.341Z" fill="#2F2E41"/>
<path opacity="0.1" d="M241.027 306.005C244.164 305.559 247.361 305.816 250.386 306.757C251.396 306.987 252.308 307.528 252.994 308.304C253.385 308.892 253.639 309.559 253.738 310.257C254.355 313.469 253.959 316.794 252.605 319.771C252.509 319.92 252.444 320.087 252.417 320.263C252.39 320.438 252.401 320.617 252.449 320.788C252.585 320.995 252.763 321.172 252.971 321.306C253.16 321.487 253.308 321.706 253.405 321.949C253.503 322.192 253.548 322.452 253.537 322.714C253.527 322.975 253.461 323.231 253.344 323.465C253.227 323.699 253.062 323.906 252.859 324.071C252.609 324.254 252.28 324.413 252.231 324.719C252.178 325.053 252.491 325.314 252.736 325.548C253.093 325.898 253.357 326.333 253.503 326.812C253.648 327.291 253.671 327.799 253.568 328.289C253.437 328.683 253.346 329.09 253.299 329.503C253.349 330.008 253.498 330.499 253.737 330.947C254.145 331.958 254.285 333.058 254.142 334.139C254.012 334.65 253.999 335.183 254.105 335.7C254.252 336.042 254.452 336.358 254.698 336.637C255.663 337.94 255.875 340.118 254.475 340.934C255.074 341.242 255.562 341.729 255.872 342.327C256.181 342.925 256.296 343.605 256.2 344.272C257.037 343.825 258.05 344.396 258.747 345.039C259.443 345.682 260.155 346.469 261.102 346.516C261.762 346.549 262.458 346.207 263.06 346.478C263.976 346.892 263.944 348.377 264.845 348.822C265.635 349.213 266.736 348.575 267.409 349.144C267.643 349.342 267.763 349.648 267.989 349.855C268.5 350.323 269.298 350.124 269.99 350.097C270.811 350.12 271.612 350.357 272.313 350.785C273.014 351.213 273.591 351.817 273.987 352.537C274.76 353.986 275.227 355.579 275.357 357.217C275.534 358.107 275.517 359.024 275.305 359.907C275.192 360.346 274.952 360.742 274.615 361.045C274.278 361.349 273.859 361.547 273.411 361.614C265.168 362.147 257.035 360.171 249.009 358.217C246.652 357.643 244.254 356.971 242.288 355.549C240.502 354.257 239.188 352.43 237.907 350.636C235.545 347.329 233.168 343.996 231.478 340.299C229.302 335.542 228.333 330.338 227.381 325.194C227.054 323.815 226.937 322.394 227.036 320.98C227.321 319.327 227.953 317.752 228.891 316.36C230.025 314.515 231.28 312.746 232.646 311.066C234.723 308.406 237.707 306.605 241.027 306.005Z" fill="black"/>
<path d="M241.571 305.461C244.708 305.016 247.904 305.273 250.93 306.213C251.939 306.444 252.852 306.985 253.538 307.761C253.928 308.348 254.182 309.016 254.281 309.714C254.898 312.926 254.503 316.25 253.149 319.228C253.052 319.376 252.988 319.544 252.961 319.719C252.934 319.895 252.945 320.074 252.992 320.245C253.128 320.452 253.306 320.628 253.515 320.763C253.703 320.944 253.851 321.163 253.949 321.406C254.046 321.648 254.091 321.909 254.081 322.17C254.07 322.432 254.004 322.688 253.887 322.922C253.771 323.156 253.605 323.362 253.403 323.528C253.152 323.71 252.824 323.869 252.775 324.176C252.721 324.509 253.035 324.771 253.279 325.005C253.637 325.355 253.9 325.79 254.046 326.268C254.192 326.747 254.214 327.255 254.112 327.745C253.98 328.14 253.89 328.547 253.842 328.96C253.893 329.465 254.042 329.956 254.281 330.404C254.689 331.415 254.828 332.514 254.685 333.595C254.555 334.106 254.543 334.64 254.648 335.156C254.795 335.498 254.996 335.815 255.241 336.094C256.207 337.396 256.419 339.574 255.018 340.391C255.617 340.698 256.106 341.185 256.415 341.783C256.725 342.382 256.839 343.062 256.744 343.729C257.58 343.282 258.594 343.853 259.29 344.496C259.987 345.139 260.699 345.925 261.645 345.973C262.305 346.006 263.001 345.663 263.603 345.935C264.519 346.348 264.488 347.833 265.389 348.279C266.179 348.669 267.279 348.032 267.952 348.601C268.187 348.799 268.306 349.105 268.532 349.312C269.043 349.78 269.841 349.581 270.534 349.553C271.355 349.577 272.156 349.814 272.857 350.242C273.558 350.67 274.135 351.274 274.53 351.993C275.304 353.443 275.77 355.036 275.901 356.673C276.078 357.563 276.06 358.481 275.849 359.363C275.736 359.802 275.495 360.198 275.159 360.502C274.822 360.805 274.403 361.003 273.954 361.07C265.712 361.604 257.578 359.627 249.553 357.673C247.195 357.099 244.798 356.428 242.832 355.006C241.045 353.714 239.732 351.887 238.451 350.093C236.089 346.785 233.712 343.452 232.022 339.756C229.846 334.999 228.876 329.795 227.925 324.651C227.597 323.272 227.481 321.851 227.579 320.437C227.865 318.783 228.497 317.208 229.435 315.817C230.569 313.971 231.823 312.203 233.19 310.522C235.267 307.863 238.25 306.061 241.571 305.461Z" fill="#525A92"/>
</g>
<defs>
<clipPath id="clip0_46_985">
<rect width="722" height="456.534" fill="white" transform="translate(0 0.282104)"/>
</clipPath>
</defs>
</svg>
