<svg width="722" height="509" viewBox="0 0 722 509" fill="none" xmlns="http://www.w3.org/2000/svg">
<g clip-path="url(#clip0_48_919)">
<path d="M376.213 284.744H326.346V286.352H334.123V301.634H335.732V286.352H366.023V301.634H367.632V286.352H376.213V284.744Z" fill="#3F3D56"/>
<path d="M394.712 245.333H381.843V258.201H387.809V301.563H389.418V258.201H394.712V245.333Z" fill="#3F3D56"/>
<path d="M376.312 279.931H326.444V281.54H376.312V279.931Z" fill="#3F3D56"/>
<path d="M376.312 275.909H326.444V277.518H376.312V275.909Z" fill="#3F3D56"/>
<path d="M376.312 271.888H326.444V273.497H376.312V271.888Z" fill="#3F3D56"/>
<path d="M504.099 306.271H502.49C502.49 229.989 440.43 167.929 364.149 167.929C287.867 167.929 225.807 229.989 225.807 306.271H224.199C224.199 229.102 286.98 166.321 364.149 166.321C441.318 166.321 504.099 229.102 504.099 306.271Z" fill="#3F3D56"/>
<path d="M131.505 263.825C204.133 263.825 263.009 204.949 263.009 132.321C263.009 59.6925 204.133 0.815918 131.505 0.815918C58.8766 0.815918 0 59.6925 0 132.321C0 204.949 58.8766 263.825 131.505 263.825Z" fill="#525A92"/>
<path opacity="0.2" d="M229.326 44.4857C241.592 73.1791 243.256 105.299 234.021 135.107C224.785 164.914 205.251 190.466 178.91 207.197C152.569 223.928 121.137 230.747 90.2309 226.437C59.3247 222.126 30.9582 206.966 10.2004 183.666C17.6936 201.197 28.9086 216.889 43.0684 229.654C57.2281 242.42 73.9941 251.955 92.2045 257.598C110.415 263.241 129.635 264.857 148.532 262.335C167.429 259.813 185.552 253.212 201.645 242.99C217.738 232.769 231.416 219.17 241.732 203.138C252.048 187.105 258.755 169.021 261.388 150.139C264.021 131.257 262.517 112.028 256.981 93.7849C251.445 75.5416 242.009 58.7201 229.326 44.4857Z" fill="black"/>
<path d="M131.866 132.321H132.227L138.73 505.158H125.002L131.866 132.321Z" fill="#3F3D56"/>
<path d="M155.811 335.403L152.781 329.649L131.043 341.093L134.072 346.848L155.811 335.403Z" fill="#3F3D56"/>
<path d="M615.564 294.548C674.347 294.548 722 246.895 722 188.112C722 129.329 674.347 81.6761 615.564 81.6761C556.781 81.6761 509.128 129.329 509.128 188.112C509.128 246.895 556.781 294.548 615.564 294.548Z" fill="#525A92"/>
<path opacity="0.2" d="M694.738 117.021C704.666 140.245 706.013 166.242 698.538 190.367C691.062 214.492 675.252 235.174 653.933 248.715C632.613 262.257 607.173 267.776 582.158 264.287C557.144 260.798 534.185 248.528 517.384 229.67C523.449 243.859 532.526 256.559 543.986 266.892C555.447 277.224 569.017 284.941 583.756 289.508C598.495 294.076 614.051 295.384 629.345 293.342C644.64 291.301 659.308 285.958 672.333 277.685C685.359 269.412 696.429 258.406 704.779 245.43C713.128 232.453 718.556 217.817 720.688 202.534C722.819 187.251 721.602 171.688 717.121 156.923C712.64 142.157 705.003 128.542 694.738 117.021Z" fill="black"/>
<path d="M615.856 188.112H616.149L621.412 489.876H610.301L615.856 188.112Z" fill="#3F3D56"/>
<path d="M635.237 352.481L632.785 347.824L615.19 357.087L617.642 361.744L635.237 352.481Z" fill="#3F3D56"/>
<path d="M301.481 279.766C310.735 279.766 318.237 272.264 318.237 263.01C318.237 253.756 310.735 246.255 301.481 246.255C292.227 246.255 284.726 253.756 284.726 263.01C284.726 272.264 292.227 279.766 301.481 279.766Z" fill="#525A92"/>
<path opacity="0.2" d="M313.945 251.819C315.508 255.475 315.72 259.567 314.543 263.365C313.366 267.163 310.877 270.419 307.521 272.551C304.165 274.682 300.16 275.551 296.222 275.002C292.284 274.453 288.67 272.521 286.025 269.552C286.98 271.786 288.409 273.785 290.213 275.412C292.017 277.038 294.153 278.253 296.474 278.972C298.794 279.691 301.243 279.897 303.651 279.576C306.058 279.254 308.367 278.413 310.418 277.111C312.468 275.809 314.211 274.076 315.526 272.033C316.84 269.991 317.695 267.686 318.03 265.281C318.365 262.875 318.174 260.425 317.469 258.1C316.763 255.776 315.561 253.633 313.945 251.819Z" fill="black"/>
<path d="M301.527 263.01H301.573L302.402 310.515H300.653L301.527 263.01Z" fill="#3F3D56"/>
<path d="M304.578 288.886L304.192 288.153L301.422 289.611L301.808 290.344L304.578 288.886Z" fill="#3F3D56"/>
<path d="M456.311 251.902C480.001 251.902 499.206 232.697 499.206 209.007C499.206 185.316 480.001 166.111 456.311 166.111C432.62 166.111 413.415 185.316 413.415 209.007C413.415 232.697 432.62 251.902 456.311 251.902Z" fill="#525A92"/>
<path opacity="0.2" d="M488.219 180.356C492.22 189.715 492.763 200.193 489.75 209.915C486.738 219.638 480.366 227.973 471.774 233.431C463.182 238.888 452.929 241.113 442.848 239.706C432.766 238.3 423.513 233.355 416.742 225.755C419.187 231.473 422.845 236.592 427.464 240.756C432.082 244.92 437.551 248.03 443.491 249.871C449.431 251.712 455.701 252.239 461.865 251.416C468.029 250.593 473.94 248.44 479.19 245.106C484.439 241.772 488.901 237.336 492.266 232.107C495.631 226.877 497.818 220.978 498.677 214.819C499.536 208.66 499.046 202.387 497.24 196.437C495.434 190.486 492.356 184.999 488.219 180.356Z" fill="black"/>
<path d="M456.429 209.007H456.546L458.668 330.623H454.189L456.429 209.007Z" fill="#3F3D56"/>
<path d="M464.239 275.25L463.251 273.373L456.16 277.106L457.148 278.983L464.239 275.25Z" fill="#3F3D56"/>
<path d="M160.985 486.597C160.985 486.597 161.54 474.959 172.927 476.312L160.985 486.597Z" fill="#3F3D56"/>
<path d="M157.768 475.522C160.915 475.522 163.466 472.971 163.466 469.824C163.466 466.676 160.915 464.125 157.768 464.125C154.62 464.125 152.069 466.676 152.069 469.824C152.069 472.971 154.62 475.522 157.768 475.522Z" fill="#525A92"/>
<path d="M158.449 479.42H156.84V490.68H158.449V479.42Z" fill="#3F3D56"/>
<path d="M201.2 460.055C201.2 460.055 201.756 448.417 213.142 449.77L201.2 460.055Z" fill="#3F3D56"/>
<path d="M197.983 448.98C201.13 448.98 203.682 446.429 203.682 443.281C203.682 440.134 201.13 437.583 197.983 437.583C194.836 437.583 192.284 440.134 192.284 443.281C192.284 446.429 194.836 448.98 197.983 448.98Z" fill="#525A92"/>
<path d="M198.664 452.878H197.056V464.138H198.664V452.878Z" fill="#3F3D56"/>
<path d="M322.425 370.008C322.425 370.008 322.866 360.765 331.91 361.839L322.425 370.008Z" fill="#3F3D56"/>
<path d="M319.87 361.212C322.37 361.212 324.396 359.185 324.396 356.686C324.396 354.186 322.37 352.159 319.87 352.159C317.37 352.159 315.344 354.186 315.344 356.686C315.344 359.185 317.37 361.212 319.87 361.212Z" fill="#525A92"/>
<path d="M320.411 364.308H319.133V373.251H320.411V364.308Z" fill="#3F3D56"/>
<path d="M499.373 341.053C499.373 341.053 499.815 331.81 508.858 332.884L499.373 341.053Z" fill="#3F3D56"/>
<path d="M496.818 332.257C499.318 332.257 501.344 330.23 501.344 327.731C501.344 325.231 499.318 323.204 496.818 323.204C494.318 323.204 492.292 325.231 492.292 327.731C492.292 330.23 494.318 332.257 496.818 332.257Z" fill="#525A92"/>
<path d="M497.359 335.352H496.082V344.296H497.359V335.352Z" fill="#3F3D56"/>
<path d="M330.468 394.138C330.468 394.138 330.909 384.894 339.953 385.968L330.468 394.138Z" fill="#3F3D56"/>
<path d="M327.913 385.341C330.413 385.341 332.439 383.315 332.439 380.815C332.439 378.315 330.413 376.289 327.913 376.289C325.413 376.289 323.387 378.315 323.387 380.815C323.387 383.315 325.413 385.341 327.913 385.341Z" fill="#525A92"/>
<path d="M328.454 388.437H327.177V397.38H328.454V388.437Z" fill="#3F3D56"/>
<path d="M311.165 411.833C311.165 411.833 311.606 402.589 320.65 403.663L311.165 411.833Z" fill="#3F3D56"/>
<path d="M308.61 403.036C311.109 403.036 313.136 401.01 313.136 398.51C313.136 396.01 311.109 393.984 308.61 393.984C306.11 393.984 304.083 396.01 304.083 398.51C304.083 401.01 306.11 403.036 308.61 403.036Z" fill="#525A92"/>
<path d="M309.151 406.132H307.873V415.075H309.151V406.132Z" fill="#3F3D56"/>
<path d="M526.72 356.335C526.72 356.335 527.161 347.092 536.205 348.166L526.72 356.335Z" fill="#3F3D56"/>
<path d="M524.165 347.539C526.664 347.539 528.691 345.512 528.691 343.012C528.691 340.513 526.664 338.486 524.165 338.486C521.665 338.486 519.638 340.513 519.638 343.012C519.638 345.512 521.665 347.539 524.165 347.539Z" fill="#525A92"/>
<path d="M524.706 350.634H523.428V359.578H524.706V350.634Z" fill="#3F3D56"/>
<path d="M266.124 376.443C266.124 376.443 266.565 367.199 275.608 368.274L266.124 376.443Z" fill="#3F3D56"/>
<path d="M263.568 367.646C266.068 367.646 268.094 365.62 268.094 363.12C268.094 360.62 266.068 358.594 263.568 358.594C261.068 358.594 259.042 360.62 259.042 363.12C259.042 365.62 261.068 367.646 263.568 367.646Z" fill="#525A92"/>
<path d="M264.109 370.742H262.832V379.685H264.109V370.742Z" fill="#3F3D56"/>
<path d="M475.244 330.597C475.244 330.597 475.685 321.354 484.729 322.428L475.244 330.597Z" fill="#3F3D56"/>
<path d="M472.689 321.801C475.188 321.801 477.215 319.774 477.215 317.275C477.215 314.775 475.188 312.748 472.689 312.748C470.189 312.748 468.162 314.775 468.162 317.275C468.162 319.774 470.189 321.801 472.689 321.801Z" fill="#525A92"/>
<path d="M473.23 324.896H471.952V333.84H473.23V324.896Z" fill="#3F3D56"/>
<path d="M91.0099 489.01C91.0099 489.01 91.5654 477.372 102.952 478.725L91.0099 489.01Z" fill="#3F3D56"/>
<path d="M87.7927 477.935C90.94 477.935 93.4914 475.384 93.4914 472.236C93.4914 469.089 90.94 466.538 87.7927 466.538C84.6453 466.538 82.0939 469.089 82.0939 472.236C82.0939 475.384 84.6453 477.935 87.7927 477.935Z" fill="#525A92"/>
<path d="M88.474 481.833H86.8654V493.093H88.474V481.833Z" fill="#3F3D56"/>
<path d="M645.179 485.793C645.179 485.793 645.735 474.155 657.121 475.508L645.179 485.793Z" fill="#3F3D56"/>
<path d="M641.962 474.718C645.109 474.718 647.661 472.167 647.661 469.019C647.661 465.872 645.109 463.321 641.962 463.321C638.815 463.321 636.263 465.872 636.263 469.019C636.263 472.167 638.815 474.718 641.962 474.718Z" fill="#525A92"/>
<path d="M642.643 478.615H641.035V489.876H642.643V478.615Z" fill="#3F3D56"/>
<path d="M598.529 458.447C598.529 458.447 599.085 446.808 610.471 448.161L598.529 458.447Z" fill="#3F3D56"/>
<path d="M595.312 447.371C598.459 447.371 601.011 444.82 601.011 441.673C601.011 438.525 598.459 435.974 595.312 435.974C592.165 435.974 589.613 438.525 589.613 441.673C589.613 444.82 592.165 447.371 595.312 447.371Z" fill="#525A92"/>
<path d="M595.993 451.269H594.385V462.529H595.993V451.269Z" fill="#3F3D56"/>
<path d="M592.095 499.466C592.095 499.466 592.65 487.828 604.036 489.181L592.095 499.466Z" fill="#3F3D56"/>
<path d="M588.878 488.391C592.025 488.391 594.576 485.84 594.576 482.692C594.576 479.545 592.025 476.994 588.878 476.994C585.73 476.994 583.179 479.545 583.179 482.692C583.179 485.84 585.73 488.391 588.878 488.391Z" fill="#525A92"/>
<path d="M589.559 492.289H587.95V503.549H589.559V492.289Z" fill="#3F3D56"/>
<path d="M100.269 508.152C100.269 508.152 353.626 441.394 351.213 373.028C346.79 354.127 316.226 349.301 316.226 349.301C316.226 349.301 243.838 339.649 283.249 316.324C322.66 292.999 430.438 298.63 430.438 298.63C430.438 298.63 319.443 316.324 368.506 325.976C407.917 328.389 458.589 338.845 458.589 338.845C458.589 338.845 561.54 360.561 576.018 413.646C590.495 466.73 578.431 507.75 578.431 507.75L100.269 508.152Z" fill="#E6E6E6"/>
<path d="M376.219 508.413L375.27 507.087C376.61 506.128 377.931 505.175 379.23 504.228L380.19 505.546C378.885 506.495 377.561 507.451 376.219 508.413Z" fill="white"/>
<path d="M388.045 499.713L387.061 498.414C389.694 496.42 392.288 494.413 394.771 492.451L395.782 493.729C393.29 495.699 390.687 497.712 388.045 499.713ZM403.386 487.57L402.345 486.316C404.894 484.198 407.387 482.069 409.754 479.991L410.83 481.215C408.452 483.304 405.947 485.443 403.386 487.57ZM418.082 474.636L416.967 473.447C419.4 471.165 421.745 468.881 423.939 466.657L425.099 467.801C422.891 470.04 420.53 472.34 418.082 474.636ZM431.822 460.667L430.609 459.578C432.844 457.088 434.958 454.594 436.892 452.167L438.167 453.182C436.213 455.635 434.079 458.153 431.822 460.667ZM444.009 445.289L442.663 444.371C444.558 441.594 446.267 438.822 447.744 436.132L449.173 436.916C447.671 439.652 445.934 442.469 444.009 445.289ZM453.382 428L451.865 427.404C453.047 424.421 453.973 421.343 454.632 418.203L456.229 418.531C455.551 421.762 454.599 424.93 453.382 428ZM455.558 408.687C455.51 405.519 455.069 402.369 454.247 399.309L455.822 398.884C456.678 402.074 457.137 405.357 457.188 408.66L455.558 408.687ZM450.682 390.51C449.133 387.714 447.317 385.076 445.257 382.633L446.506 381.588C448.635 384.112 450.512 386.838 452.111 389.727L450.682 390.51ZM438.521 375.754C436.099 373.621 433.562 371.622 430.921 369.766L431.861 368.435C434.551 370.325 437.136 372.361 439.602 374.535L438.521 375.754ZM422.752 364.52C420.086 362.953 417.209 361.389 414.205 359.872L414.939 358.417C417.975 359.949 420.882 361.53 423.578 363.114L422.752 364.52ZM405.395 355.706C402.557 354.445 399.535 353.176 396.412 351.934L397.015 350.42C400.158 351.67 403.2 352.947 406.057 354.216L405.395 355.706ZM387.272 348.469C384.368 347.416 381.263 346.335 378.045 345.257L378.563 343.711C381.793 344.795 384.911 345.879 387.828 346.936L387.272 348.469ZM368.746 342.237C365.905 341.341 362.847 340.398 359.397 339.353L359.869 337.793C363.326 338.84 366.39 339.785 369.236 340.682L368.746 342.237ZM350.018 336.538C346.72 335.552 343.576 334.609 340.633 333.703L341.113 332.144C344.052 333.051 347.191 333.992 350.485 334.976L350.018 336.538ZM331.285 330.68C328.15 329.645 325.083 328.411 322.105 326.984L322.838 325.528C325.751 326.922 328.751 328.128 331.819 329.139L331.285 330.68ZM318.976 319.995L317.814 318.852C319.3 317.342 322.239 315.865 326.8 314.335L327.318 315.881C323.066 317.306 320.26 318.691 318.976 319.995ZM336.643 313.225L336.249 311.643C339.068 310.941 342.28 310.206 345.795 309.46L346.133 311.055C342.637 311.797 339.444 312.527 336.643 313.225ZM355.69 309.135L355.384 307.534C358.388 306.96 361.622 306.365 364.999 305.767L365.284 307.371C361.914 307.969 358.686 308.562 355.69 309.135ZM374.899 305.716L374.63 304.108C377.702 303.593 380.916 303.067 384.273 302.528L384.531 304.138C381.177 304.676 377.966 305.202 374.899 305.716Z" fill="white"/>
<path d="M394.359 302.59L394.109 300.979C395.694 300.734 397.307 300.487 398.947 300.237L399.192 301.848C397.553 302.098 395.942 302.345 394.359 302.59Z" fill="white"/>
<path d="M430.435 137.021L437.839 131.099C432.087 130.464 429.723 133.601 428.756 136.084C424.263 134.218 419.371 136.664 419.371 136.664L434.185 142.042C433.438 140.046 432.137 138.304 430.435 137.021Z" fill="#3F3D56"/>
<path d="M292.898 182.866L300.302 176.944C294.55 176.31 292.186 179.447 291.219 181.93C286.726 180.064 281.834 182.509 281.834 182.509L296.648 187.887C295.901 185.891 294.6 184.149 292.898 182.866Z" fill="#3F3D56"/>
<path d="M329.092 87.9578L336.496 82.0358C330.744 81.4012 328.38 84.5382 327.413 87.0212C322.92 85.1553 318.028 87.6007 318.028 87.6007L332.842 92.9789C332.095 90.9827 330.794 89.2409 329.092 87.9578Z" fill="#3F3D56"/>
<path d="M409.582 351.634C409.582 351.634 403.169 351.634 402.457 355.553C401.744 359.472 400.675 402.227 401.388 407.571C402.1 412.915 402.1 411.846 402.1 411.846C402.1 411.846 400.68 422.002 403.884 422.447C407.088 422.891 407.088 410.777 407.088 410.777L409.582 367.31V351.634Z" fill="#9E616A"/>
<path d="M437.373 351.634C437.373 351.634 443.786 351.634 444.499 355.553C445.211 359.472 446.28 402.227 445.567 407.571C444.855 412.915 444.855 411.846 444.855 411.846C444.855 411.846 446.275 422.002 443.071 422.447C439.867 422.891 439.867 410.777 439.867 410.777L437.373 367.31V351.634Z" fill="#9E616A"/>
<path d="M408.514 500.562H405.663C404.821 500.562 403.987 500.728 403.209 501.05C402.431 501.372 401.724 501.845 401.129 502.44C400.533 503.036 400.061 503.743 399.738 504.521C399.416 505.299 399.25 506.133 399.25 506.975L416.708 506.975V498.781H408.514V500.562Z" fill="#2F2E41"/>
<path d="M435.948 500.562H438.798C440.499 500.562 442.13 501.238 443.333 502.44C444.535 503.643 445.211 505.274 445.211 506.975L427.753 506.975V498.781H435.948V500.562Z" fill="#2F2E41"/>
<path d="M420.627 343.439C425.743 343.439 429.891 339.292 429.891 334.176C429.891 329.059 425.743 324.912 420.627 324.912C415.511 324.912 411.364 329.059 411.364 334.176C411.364 339.292 415.511 343.439 420.627 343.439Z" fill="#9E616A"/>
<path d="M418.49 339.164C418.49 339.164 417.421 350.921 415.996 351.99C414.57 353.059 430.96 351.277 430.96 351.277C430.96 351.277 425.259 342.726 426.328 339.876C427.397 337.026 418.49 339.164 418.49 339.164Z" fill="#9E616A"/>
<path d="M439.511 351.634C439.511 351.634 419.915 343.439 407.088 351.634C407.088 351.634 403.882 359.828 406.376 364.46C408.87 369.092 412.789 380.137 408.87 387.619C404.951 395.101 409.226 391.894 409.226 391.894C409.226 391.894 404.238 411.846 403.526 427.523C402.813 443.2 405.663 499.493 407.801 499.849C409.939 500.206 416.708 500.918 417.421 499.849C418.133 498.78 423.121 424.316 423.121 424.316C423.121 424.316 425.259 500.562 427.397 500.562C429.535 500.562 435.235 500.562 436.304 498.78C437.373 496.999 446.28 428.236 443.073 413.984C439.867 399.733 437.729 392.607 437.729 392.607C437.729 392.607 441.648 390.113 440.579 388.688C439.511 387.262 434.166 371.942 436.66 369.448C439.154 366.954 439.511 351.634 439.511 351.634Z" fill="#2F2E41"/>
<path d="M426.506 343.557C434.77 343.557 441.47 336.857 441.47 328.593C441.47 320.328 434.77 313.628 426.506 313.628C418.242 313.628 411.542 320.328 411.542 328.593C411.542 336.857 418.242 343.557 426.506 343.557Z" fill="#2F2E41"/>
<path d="M435.85 321.101C433.329 320.509 431.132 318.968 429.716 316.799C428.3 314.63 427.773 311.999 428.245 309.452C428.201 309.606 428.16 309.76 428.123 309.917C427.513 312.519 427.962 315.257 429.37 317.528C430.778 319.799 433.03 321.419 435.632 322.03C438.234 322.641 440.971 322.194 443.244 320.788C445.516 319.381 447.137 317.13 447.75 314.529C447.787 314.372 447.819 314.215 447.848 314.059C447.136 316.549 445.493 318.67 443.259 319.981C441.025 321.293 438.372 321.694 435.85 321.101Z" fill="#2F2E41"/>
<path d="M436.459 323.051C440.504 323.051 443.782 319.773 443.782 315.728C443.782 311.684 440.504 308.406 436.459 308.406C432.415 308.406 429.136 311.684 429.136 315.728C429.136 319.773 432.415 323.051 436.459 323.051Z" fill="#2F2E41"/>
</g>
<defs>
<clipPath id="clip0_48_919">
<rect width="722" height="507.597" fill="white" transform="translate(0 0.815918)"/>
</clipPath>
</defs>
</svg>
