<svg width="716" height="531" viewBox="0 0 716 531" fill="none" xmlns="http://www.w3.org/2000/svg">
<g clip-path="url(#clip0_14_90)">
<path d="M673.569 479.181C666.906 479.181 660.516 481.827 655.804 486.537C651.093 491.247 648.446 497.635 648.446 504.296C648.446 510.957 651.092 517.345 655.804 522.055C660.516 526.765 666.906 529.411 673.569 529.411C680.232 529.411 686.622 526.765 691.334 522.055C696.046 517.345 698.693 510.957 698.693 504.296C698.693 497.635 696.046 491.247 691.334 486.537C686.622 481.827 680.232 479.181 673.569 479.181Z" fill="#E4E1E9"/>
<path d="M671.186 514.726C670.524 514.728 669.88 514.514 669.351 514.117L669.318 514.092L662.409 508.809C662.089 508.564 661.821 508.258 661.619 507.909C661.417 507.56 661.286 507.175 661.233 506.775C661.18 506.375 661.206 505.969 661.31 505.58C661.415 505.19 661.594 504.825 661.84 504.505C662.085 504.185 662.391 503.916 662.74 503.715C663.09 503.513 663.475 503.382 663.875 503.329C664.275 503.277 664.681 503.303 665.071 503.408C665.46 503.512 665.826 503.692 666.146 503.937L670.621 507.368L681.195 493.576C681.441 493.257 681.746 492.988 682.095 492.787C682.444 492.585 682.83 492.454 683.229 492.401C683.629 492.349 684.035 492.375 684.424 492.479C684.813 492.583 685.178 492.763 685.498 493.008L685.499 493.009L685.434 493.1L685.501 493.009C686.146 493.505 686.568 494.236 686.675 495.043C686.781 495.849 686.563 496.665 686.069 497.311L673.63 513.526C673.343 513.899 672.973 514.202 672.549 514.409C672.126 514.617 671.66 514.724 671.188 514.723L671.186 514.726Z" fill="#FBF8FF"/>
<path d="M618.868 519.367L606.973 519.366L601.317 473.499L618.873 473.501L618.868 519.367Z" fill="#FFB4AB"/>
<path d="M598.477 515.968H621.418V530.407H584.033C584.033 528.511 584.407 526.634 585.133 524.882C585.859 523.13 586.923 521.538 588.264 520.197C589.605 518.856 591.197 517.793 592.95 517.067C594.702 516.342 596.581 515.968 598.477 515.968Z" fill="#2F2E41"/>
<path d="M571.526 519.367L559.631 519.366L553.975 473.499L571.53 473.501L571.526 519.367Z" fill="#FFB4AB"/>
<path d="M551.135 515.968H574.075V530.407H536.69C536.69 528.511 537.064 526.634 537.79 524.882C538.516 523.13 539.58 521.538 540.921 520.197C542.262 518.856 543.855 517.793 545.607 517.067C547.359 516.342 549.238 515.968 551.135 515.968Z" fill="#2F2E41"/>
<path d="M628.033 360.795C627.075 359.738 626.361 358.484 625.941 357.121C625.521 355.759 625.405 354.32 625.601 352.908C625.797 351.496 626.301 350.143 627.076 348.947C627.851 347.75 628.88 346.737 630.089 345.981L626.404 323.999L639.221 318.503L643.988 349.619C645.125 351.733 645.446 354.191 644.891 356.527C644.336 358.863 642.943 360.914 640.976 362.291C639.009 363.669 636.605 364.277 634.22 364.002C631.834 363.726 629.633 362.585 628.033 360.795Z" fill="#FFB4AB"/>
<path d="M527.69 350.408C528.808 349.524 529.72 348.405 530.359 347.13C530.999 345.856 531.351 344.457 531.391 343.031C531.431 341.606 531.158 340.189 530.591 338.881C530.024 337.572 529.177 336.404 528.11 335.458L535.376 314.387L523.644 306.849L513.8 336.75C512.33 338.648 511.607 341.02 511.768 343.415C511.93 345.81 512.965 348.063 514.677 349.746C516.389 351.43 518.659 352.427 521.057 352.549C523.456 352.671 525.815 351.909 527.69 350.408Z" fill="#FFB4AB"/>
<path d="M588.611 195.176C602.725 195.176 614.166 183.738 614.166 169.628C614.166 155.519 602.725 144.081 588.611 144.081C574.497 144.081 563.055 155.519 563.055 169.628C563.055 183.738 574.497 195.176 588.611 195.176Z" fill="#FFB4AB"/>
<path d="M526.899 334.643C526.461 334.643 526.025 334.582 525.604 334.46L518.155 332.322C516.965 331.979 515.96 331.179 515.358 330.097C514.757 329.015 514.607 327.74 514.942 326.548L530.314 272.291L551.751 219.685C553.882 214.456 558.335 211.026 563.373 210.735C565.673 210.622 567.957 211.179 569.948 212.338C571.938 213.497 573.55 215.208 574.587 217.264C575.74 219.464 576.373 221.899 576.438 224.382C576.502 226.865 575.996 229.33 574.959 231.587L550.593 284.854L531.223 331.748C530.87 332.604 530.271 333.337 529.501 333.852C528.731 334.368 527.826 334.643 526.899 334.643Z" fill="#525A92"/>
<path d="M603.032 191.053L588.832 191.305C587.353 191.334 585.888 191.016 584.555 190.375C583.222 189.734 582.058 188.789 581.157 187.616C580.257 186.443 579.644 185.074 579.37 183.621C579.095 182.168 579.166 180.671 579.576 179.25C579.88 178.223 580.108 177.176 580.258 176.116C580.418 174.961 580.449 173.791 580.352 172.628C580.262 171.464 579.779 170.365 578.982 169.511C578.185 168.657 577.122 168.1 575.966 167.929C574.81 167.759 573.631 167.986 572.622 168.574C571.612 169.161 570.833 170.074 570.41 171.163C568.023 171.197 562.937 170.419 560.549 170.453C555.48 157.462 566.527 140.462 578.418 134.077C590.541 127.568 606.278 134.19 610.925 147.757C617.374 147.873 622.614 154.231 623.446 161.389C624.277 168.547 621.331 176.022 616.825 181.508C612.318 186.994 606.401 190.993 603.032 191.053Z" fill="#2F2E41"/>
<path d="M556.358 515.085C555.207 515.079 554.099 514.651 553.243 513.882C552.388 513.113 551.844 512.057 551.715 510.914L546.447 333.843L612.817 338.566L612.868 338.992C627.867 464.5 622.74 507.947 622.686 508.371C622.649 509.013 622.481 509.641 622.19 510.215C621.9 510.789 621.494 511.297 620.999 511.707C620.503 512.117 619.928 512.421 619.31 512.599C618.692 512.777 618.043 512.826 617.405 512.742L602.738 513.094C601.626 512.968 600.596 512.448 599.834 511.628C599.073 510.809 598.63 509.743 598.587 508.625L584.883 380.374C584.798 380.041 584.599 379.748 584.32 379.548C584.041 379.347 583.7 379.25 583.357 379.276C583.004 379.275 582.662 379.396 582.389 379.619C582.115 379.843 581.928 380.154 581.86 380.5L576.565 509.171C576.621 510.366 576.216 511.536 575.433 512.44C574.651 513.344 573.551 513.913 572.36 514.029L556.823 515.062C556.668 515.077 556.513 515.085 556.358 515.085Z" fill="#2F2E41"/>
<path d="M583.898 355C583.501 355 583.105 354.994 582.707 354.982C563.622 354.407 548.691 339.973 544.57 335.563C544.045 335 543.667 334.317 543.471 333.573C543.275 332.83 543.266 332.049 543.445 331.301L554.455 284.739L551.534 244.259C551.075 238.641 551.812 232.99 553.696 227.677C555.58 222.364 558.568 217.511 562.465 213.436C565.711 210.008 569.657 207.317 574.035 205.546C578.413 203.776 583.121 202.967 587.839 203.174C606.417 204.06 621.073 220.661 621.206 240.966C621.411 272.415 620.485 274.575 620.181 275.285C610.909 296.917 615.973 327.282 617.746 336.074C617.904 336.858 617.86 337.67 617.616 338.432C617.373 339.194 616.938 339.882 616.355 340.429C606.157 350.102 595.243 355 583.898 355Z" fill="#525A92"/>
<path d="M631.828 343.164C630.769 343.164 629.741 342.804 628.914 342.143C628.086 341.483 627.506 340.562 627.27 339.53L615.911 290.063L600.688 233.523C600.038 231.125 599.947 228.611 600.42 226.173C600.894 223.734 601.921 221.437 603.422 219.457C604.786 217.602 606.658 216.182 608.812 215.367C610.966 214.553 613.31 214.381 615.561 214.87C620.481 215.989 624.306 220.107 625.544 225.618L637.983 280.984L644.187 337.091C644.321 338.321 643.962 339.555 643.19 340.522C642.417 341.49 641.294 342.113 640.064 342.255L632.364 343.133C632.186 343.154 632.007 343.164 631.828 343.164Z" fill="#525A92"/>
<path d="M304.865 54.0882H27.0529C19.878 54.0882 12.997 51.2389 7.92359 46.1672C2.85019 41.0954 0 34.2166 0 27.0441C0 19.8716 2.85019 12.9928 7.92359 7.92103C12.997 2.84928 19.878 0 27.0529 0H304.865C312.04 0 318.921 2.84928 323.995 7.92103C329.068 12.9928 331.918 19.8716 331.918 27.0441C331.918 34.2166 329.068 41.0954 323.995 46.1672C318.921 51.2389 312.04 54.0882 304.865 54.0882Z" fill="#E4E1E9"/>
<path d="M27.0529 8.84133C22.2236 8.84133 17.5922 10.7591 14.1774 14.1728C10.7626 17.5865 8.84421 22.2164 8.84421 27.0441C8.84421 31.8717 10.7626 36.5017 14.1774 39.9154C17.5922 43.329 22.2236 45.2468 27.0529 45.2468H304.865C309.694 45.2468 314.326 43.329 317.741 39.9154C321.155 36.5017 323.074 31.8717 323.074 27.0441C323.074 22.2164 321.155 17.5865 317.741 14.1728C314.326 10.7591 309.694 8.84133 304.865 8.84133H27.0529Z" fill="#FBF8FF"/>
<path d="M403.04 1.74861C396.377 1.74859 389.987 4.39463 385.275 9.10464C380.564 13.8147 377.917 20.2028 377.917 26.8638C377.917 33.5248 380.564 39.913 385.275 44.623C389.987 49.3331 396.377 51.9792 403.04 51.9792C409.703 51.9792 416.094 49.3331 420.805 44.6231C425.517 39.9131 428.164 33.5249 428.164 26.8639C428.164 20.2029 425.517 13.8147 420.805 9.1047C416.094 4.39467 409.703 1.74861 403.04 1.74861Z" fill="#525A92"/>
<path d="M400.657 37.2944C399.996 37.2956 399.352 37.0817 398.823 36.685L398.79 36.6604L391.881 31.377C391.561 31.1318 391.292 30.826 391.09 30.477C390.888 30.128 390.757 29.7426 390.704 29.3429C390.651 28.9433 390.678 28.5371 390.782 28.1476C390.886 27.7581 391.066 27.3929 391.311 27.0729C391.557 26.753 391.863 26.4845 392.212 26.2828C392.561 26.0811 392.947 25.9501 393.346 25.8974C393.746 25.8447 394.153 25.8713 394.542 25.9756C394.932 26.0799 395.297 26.2599 395.617 26.5053L400.092 29.9359L410.667 16.1443C410.912 15.8246 411.218 15.5562 411.567 15.3546C411.916 15.153 412.301 15.0221 412.701 14.9694C413.1 14.9166 413.506 14.943 413.895 15.0471C414.285 15.1513 414.65 15.331 414.97 15.5762L414.971 15.5768L414.905 15.6679L414.972 15.5768C415.618 16.0726 416.04 16.804 416.146 17.6106C416.253 18.4172 416.035 19.2331 415.54 19.8792L403.102 36.0938C402.814 36.4674 402.444 36.7698 402.02 36.9773C401.597 37.1849 401.131 37.2922 400.66 37.2908L400.657 37.2944Z" fill="#FBF8FF"/>
<path d="M304.865 145.622H27.0529C19.878 145.622 12.997 142.773 7.92359 137.701C2.85019 132.629 0 125.75 0 118.578C0 111.405 2.85019 104.527 7.92359 99.4547C12.997 94.383 19.878 91.5337 27.0529 91.5337H304.865C312.04 91.5337 318.921 94.383 323.995 99.4547C329.068 104.527 331.918 111.405 331.918 118.578C331.918 125.75 329.068 132.629 323.995 137.701C318.921 142.773 312.04 145.622 304.865 145.622Z" fill="#E4E1E9"/>
<path d="M27.0529 100.375C22.2236 100.375 17.5922 102.293 14.1774 105.707C10.7626 109.12 8.84421 113.75 8.84421 118.578C8.84421 123.406 10.7626 128.035 14.1774 131.449C17.5922 134.863 22.2236 136.781 27.0529 136.781H304.865C309.694 136.781 314.326 134.863 317.741 131.449C321.155 128.035 323.074 123.406 323.074 118.578C323.074 113.75 321.155 109.12 317.741 105.707C314.326 102.293 309.694 100.375 304.865 100.375H27.0529Z" fill="#FBF8FF"/>
<path d="M403.04 93.2823C396.377 93.2823 389.987 95.9284 385.275 100.638C380.564 105.348 377.917 111.737 377.917 118.398C377.917 125.059 380.564 131.447 385.275 136.157C389.987 140.867 396.377 143.513 403.04 143.513C409.703 143.513 416.094 140.867 420.805 136.157C425.517 131.447 428.164 125.059 428.164 118.398C428.164 111.737 425.517 105.348 420.805 100.638C416.094 95.9284 409.703 93.2823 403.04 93.2823Z" fill="#525A92"/>
<path d="M400.657 128.828C399.996 128.829 399.352 128.615 398.823 128.219L398.79 128.194L391.881 122.911C391.561 122.666 391.292 122.36 391.09 122.011C390.888 121.662 390.757 121.276 390.704 120.877C390.651 120.477 390.678 120.071 390.782 119.681C390.886 119.292 391.066 118.927 391.311 118.607C391.557 118.287 391.863 118.018 392.212 117.817C392.561 117.615 392.947 117.484 393.346 117.431C393.746 117.379 394.153 117.405 394.542 117.509C394.932 117.614 395.297 117.794 395.617 118.039L400.092 121.47L410.667 107.678C410.912 107.358 411.218 107.09 411.567 106.888C411.916 106.687 412.301 106.556 412.701 106.503C413.1 106.45 413.506 106.477 413.895 106.581C414.285 106.685 414.65 106.865 414.97 107.11L414.971 107.111L414.905 107.202L414.972 107.111C415.618 107.606 416.04 108.338 416.146 109.144C416.253 109.951 416.035 110.767 415.54 111.413L403.102 127.628C402.814 128.001 402.444 128.304 402.02 128.511C401.597 128.719 401.131 128.826 400.66 128.825L400.657 128.828Z" fill="#FBF8FF"/>
<path d="M304.865 237.156H27.0529C19.878 237.156 12.997 234.306 7.92359 229.235C2.85019 224.163 0 217.284 0 210.112C0 202.939 2.85019 196.06 7.92359 190.988C12.997 185.917 19.878 183.067 27.0529 183.067H304.865C312.04 183.067 318.921 185.917 323.995 190.988C329.068 196.06 331.918 202.939 331.918 210.112C331.918 217.284 329.068 224.163 323.995 229.235C318.921 234.306 312.04 237.156 304.865 237.156Z" fill="#E4E1E9"/>
<path d="M27.0529 191.909C22.2236 191.909 17.5922 193.827 14.1774 197.24C10.7626 200.654 8.84421 205.284 8.84421 210.112C8.84421 214.939 10.7626 219.569 14.1774 222.983C17.5922 226.396 22.2236 228.314 27.0529 228.314H304.865C309.694 228.314 314.326 226.396 317.741 222.983C321.155 219.569 323.074 214.939 323.074 210.112C323.074 205.284 321.155 200.654 317.741 197.24C314.326 193.827 309.694 191.909 304.865 191.909H27.0529Z" fill="#FBF8FF"/>
<path d="M403.04 184.816C396.377 184.816 389.987 187.462 385.275 192.172C380.564 196.882 377.917 203.27 377.917 209.931C377.917 216.592 380.564 222.98 385.275 227.691C389.987 232.401 396.377 235.047 403.04 235.047C409.703 235.047 416.094 232.401 420.805 227.691C425.517 222.981 428.164 216.592 428.164 209.931C428.164 203.27 425.517 196.882 420.805 192.172C416.094 187.462 409.703 184.816 403.04 184.816Z" fill="#E4E1E9"/>
<path d="M714.96 531H497.497C497.221 531 496.956 530.89 496.761 530.695C496.566 530.5 496.456 530.235 496.456 529.96C496.456 529.684 496.566 529.419 496.761 529.224C496.956 529.029 497.221 528.919 497.497 528.919H714.96C715.236 528.919 715.501 529.029 715.696 529.224C715.891 529.419 716.001 529.684 716.001 529.96C716.001 530.235 715.891 530.5 715.696 530.695C715.501 530.89 715.236 531 714.96 531Z" fill="#E4E1E9"/>
</g>
<defs>
<clipPath id="clip0_14_90">
<rect width="716" height="531" fill="white"/>
</clipPath>
</defs>
</svg>
